<svg width="1873" height="499" viewBox="0 0 1873 499" fill="none" xmlns="http://www.w3.org/2000/svg">
<path d="M255.36 95C291.445 95.0002 320.697 124.253 320.697 160.338C320.697 196.423 291.445 225.675 255.36 225.675C236.302 225.675 219.15 217.514 207.206 204.497V204.536C207.133 204.443 207.058 204.35 206.984 204.257C205.464 202.583 204.031 200.829 202.688 199.004C181.909 174.599 154.997 158.393 116.045 201.542C104.065 216.267 85.8006 225.675 65.3379 225.675C29.253 225.675 0.000169075 196.423 0 160.338C0 124.253 29.2529 95 65.3379 95C87.2579 95.0001 106.656 105.795 118.508 122.358C137.485 144.757 163.212 167.464 201.978 122.655C213.81 105.924 233.309 95 255.36 95Z" fill="black"/>
<circle cx="65.3376" cy="330.727" r="65.3376" fill="black"/>
<circle cx="255.36" cy="330.727" r="65.3376" fill="black"/>
<path d="M486.998 95.3829H561.992L641.199 288.626H644.569L723.777 95.3829H798.77V383H739.786V195.796H737.399L662.967 381.596H622.802L548.369 195.094H545.982V383H486.998V95.3829ZM945.212 387.213C923.398 387.213 904.532 382.579 888.616 373.31C872.793 363.947 860.575 350.933 851.961 334.268C843.348 317.509 839.041 298.082 839.041 275.986C839.041 253.703 843.348 234.229 851.961 217.564C860.575 200.805 872.793 187.791 888.616 178.522C904.532 169.16 923.398 164.478 945.212 164.478C967.027 164.478 985.846 169.16 1001.67 178.522C1017.58 187.791 1029.85 200.805 1038.46 217.564C1047.08 234.229 1051.38 253.703 1051.38 275.986C1051.38 298.082 1047.08 317.509 1038.46 334.268C1029.85 350.933 1017.58 363.947 1001.67 373.31C985.846 382.579 967.027 387.213 945.212 387.213ZM945.493 340.869C955.417 340.869 963.703 338.06 970.351 332.442C976.998 326.731 982.007 318.96 985.378 309.13C988.842 299.299 990.574 288.111 990.574 275.565C990.574 263.019 988.842 251.831 985.378 242C982.007 232.17 976.998 224.399 970.351 218.687C963.703 212.976 955.417 210.121 945.493 210.121C935.475 210.121 927.049 212.976 920.214 218.687C913.473 224.399 908.371 232.17 904.907 242C901.536 251.831 899.851 263.019 899.851 275.565C899.851 288.111 901.536 299.299 904.907 309.13C908.371 318.96 913.473 326.731 920.214 332.442C927.049 338.06 935.475 340.869 945.493 340.869ZM1269.76 228.799L1214.99 232.17C1214.06 227.488 1212.04 223.275 1208.95 219.53C1205.87 215.691 1201.79 212.649 1196.74 210.402C1191.77 208.061 1185.83 206.891 1178.9 206.891C1169.63 206.891 1161.81 208.857 1155.45 212.789C1149.08 216.628 1145.9 221.777 1145.9 228.237C1145.9 233.387 1147.96 237.74 1152.08 241.298C1156.2 244.856 1163.27 247.711 1173.28 249.865L1212.33 257.729C1233.3 262.036 1248.93 268.964 1259.23 278.514C1269.53 288.064 1274.68 300.61 1274.68 316.151C1274.68 330.289 1270.51 342.694 1262.18 353.368C1253.94 364.041 1242.61 372.374 1228.19 378.366C1213.87 384.264 1197.35 387.213 1178.62 387.213C1150.06 387.213 1127.31 381.268 1110.37 369.378C1093.51 357.393 1083.64 341.103 1080.73 320.505L1139.58 317.415C1141.36 326.123 1145.66 332.77 1152.5 337.358C1159.33 341.852 1168.09 344.099 1178.76 344.099C1189.25 344.099 1197.67 342.086 1204.04 338.06C1210.5 333.94 1213.78 328.65 1213.87 322.19C1213.78 316.76 1211.48 312.313 1206.99 308.849C1202.49 305.291 1195.57 302.576 1186.2 300.703L1148.85 293.26C1127.78 289.047 1112.1 281.744 1101.8 271.352C1091.6 260.959 1086.49 247.711 1086.49 231.608C1086.49 217.751 1090.24 205.814 1097.73 195.796C1105.31 185.778 1115.94 178.054 1129.61 172.624C1143.37 167.194 1159.47 164.478 1177.92 164.478C1205.16 164.478 1226.6 170.236 1242.24 181.752C1257.97 193.268 1267.14 208.95 1269.76 228.799ZM1373.86 387.073C1360.1 387.073 1347.84 384.685 1337.07 379.91C1326.3 375.042 1317.78 367.88 1311.51 358.423C1305.33 348.874 1302.24 336.983 1302.24 322.752C1302.24 310.768 1304.44 300.703 1308.84 292.558C1313.24 284.412 1319.23 277.859 1326.82 272.897C1334.4 267.934 1343.01 264.189 1352.66 261.662C1362.4 259.134 1372.6 257.355 1383.27 256.325C1395.82 255.014 1405.93 253.797 1413.61 252.673C1421.29 251.456 1426.86 249.677 1430.32 247.337C1433.78 244.996 1435.52 241.532 1435.52 236.944V236.102C1435.52 227.207 1432.71 220.326 1427.09 215.457C1421.57 210.589 1413.7 208.155 1403.5 208.155C1392.73 208.155 1384.16 210.542 1377.8 215.317C1371.43 219.998 1367.22 225.897 1365.16 233.012L1309.82 228.518C1312.63 215.411 1318.16 204.082 1326.4 194.532C1334.64 184.889 1345.26 177.492 1358.28 172.343C1371.38 167.1 1386.55 164.478 1403.78 164.478C1415.76 164.478 1427.23 165.883 1438.18 168.692C1449.23 171.5 1459.02 175.854 1467.54 181.752C1476.15 187.651 1482.94 195.234 1487.9 204.503C1492.86 213.679 1495.34 224.68 1495.34 237.506V383H1438.61V353.087H1436.92C1433.46 359.828 1428.82 365.773 1423.02 370.922C1417.21 375.978 1410.24 379.957 1402.09 382.86C1393.95 385.668 1384.54 387.073 1373.86 387.073ZM1391 345.784C1399.8 345.784 1407.57 344.052 1414.31 340.588C1421.05 337.03 1426.34 332.255 1430.18 326.263C1434.02 320.271 1435.94 313.483 1435.94 305.9V283.008C1434.07 284.225 1431.49 285.349 1428.21 286.379C1425.03 287.315 1421.43 288.204 1417.4 289.047C1413.37 289.796 1409.35 290.498 1405.32 291.154C1401.3 291.715 1397.65 292.23 1394.37 292.698C1387.35 293.728 1381.21 295.367 1375.97 297.614C1370.73 299.861 1366.66 302.903 1363.75 306.742C1360.85 310.487 1359.4 315.168 1359.4 320.786C1359.4 328.931 1362.35 335.157 1368.25 339.464C1374.24 343.677 1381.82 345.784 1391 345.784ZM1541.76 383V167.287H1601.58V383H1541.76ZM1571.81 139.48C1562.92 139.48 1555.29 136.531 1548.92 130.633C1542.65 124.641 1539.51 117.478 1539.51 109.146C1539.51 100.907 1542.65 93.8381 1548.92 87.9397C1555.29 81.9476 1562.92 78.9516 1571.81 78.9516C1580.71 78.9516 1588.29 81.9476 1594.56 87.9397C1600.93 93.8381 1604.11 100.907 1604.11 109.146C1604.11 117.478 1600.93 124.641 1594.56 130.633C1588.29 136.531 1580.71 139.48 1571.81 139.48ZM1746.97 387.213C1724.88 387.213 1705.87 382.532 1689.96 373.169C1674.13 363.713 1661.96 350.606 1653.44 333.847C1645.01 317.088 1640.8 297.801 1640.8 275.986C1640.8 253.891 1645.06 234.51 1653.58 217.845C1662.2 201.086 1674.41 188.025 1690.24 178.663C1706.06 169.206 1724.88 164.478 1746.69 164.478C1765.51 164.478 1781.99 167.896 1796.13 174.73C1810.26 181.565 1821.45 191.162 1829.69 203.52C1837.93 215.879 1842.47 230.391 1843.31 247.056H1786.86C1785.27 236.289 1781.05 227.629 1774.22 221.075C1767.48 214.428 1758.63 211.104 1747.68 211.104C1738.41 211.104 1730.31 213.632 1723.38 218.687C1716.54 223.65 1711.21 230.906 1707.37 240.455C1703.53 250.005 1701.61 261.568 1701.61 275.144C1701.61 288.907 1703.48 300.61 1707.23 310.253C1711.07 319.897 1716.45 327.246 1723.38 332.302C1730.31 337.358 1738.41 339.886 1747.68 339.886C1754.51 339.886 1760.64 338.481 1766.07 335.672C1771.6 332.864 1776.14 328.791 1779.7 323.454C1783.35 318.024 1785.73 311.517 1786.86 303.933H1843.31C1842.38 320.411 1837.88 334.923 1829.83 347.469C1821.87 359.921 1810.87 369.658 1796.83 376.68C1782.78 383.702 1766.17 387.213 1746.97 387.213Z" fill="black"/>
</svg>
